<svg width="193" height="193" viewBox="0 0 193 193" fill="none" xmlns="http://www.w3.org/2000/svg">
<mask id="mask0_2011_174" style="mask-type:luminance" maskUnits="userSpaceOnUse" x="2" y="2" width="188" height="188">
<path d="M189.912 2.31592H2.31641V189.912H189.912V2.31592Z" fill="white"/>
</mask>
<g mask="url(#mask0_2011_174)">
<path d="M96.1144 189.912C147.918 189.912 189.912 147.917 189.912 96.1139C189.912 44.3107 147.918 2.31592 96.1144 2.31592C44.3112 2.31592 2.31641 44.3107 2.31641 96.1139C2.31641 147.917 44.3112 189.912 96.1144 189.912Z" fill="#469178"/>
<path d="M96.1136 148.876C109.065 148.876 119.563 135.752 119.563 119.564C119.563 103.375 109.065 90.2515 96.1136 90.2515C83.1625 90.2515 72.6641 103.375 72.6641 119.564C72.6641 135.752 83.1625 148.876 96.1136 148.876Z" fill="white"/>
<path d="M71.3547 95.5147C78.3911 93.6295 82.0573 84.4951 79.5437 75.1128C77.0298 65.7306 69.2875 59.6533 62.2509 61.5388C55.2144 63.4243 51.548 72.5585 54.0619 81.9406C56.5759 91.3227 64.3181 97.3999 71.3547 95.5147Z" fill="white"/>
<path d="M85.9215 84.3224C93.1783 83.6871 98.3754 75.3287 97.5285 65.6525C96.6824 55.9764 90.1127 48.6471 82.8559 49.282C75.5988 49.9169 70.402 58.2756 71.2486 67.9518C72.0951 77.6277 78.6647 84.957 85.9215 84.3224Z" fill="white"/>
<path d="M106.307 84.3224C113.564 84.957 120.133 77.6277 120.979 67.9518C121.826 58.2756 116.629 49.9169 109.372 49.282C102.116 48.6471 95.5459 55.9764 94.6998 65.6525C93.8529 75.3287 99.05 83.6871 106.307 84.3224Z" fill="white"/>
<path d="M120.874 95.5148C127.91 97.4 135.653 91.3228 138.166 81.9407C140.681 72.5584 137.014 63.4243 129.978 61.5388C122.941 59.6533 115.198 65.7306 112.685 75.1127C110.171 84.4952 113.837 93.6288 120.874 95.5148Z" fill="white"/>
</g>
</svg>
