<svg width="1756" height="17" viewBox="0 0 1756 17" fill="none" xmlns="http://www.w3.org/2000/svg">
<path d="M950.551 0.000289917C948.39 -0.0203886 946.317 0.819957 944.789 2.34838C943.261 3.87611 942.403 5.96674 942.403 8.14844C942.403 10.3301 943.261 12.4208 944.789 13.9485C946.317 15.4769 948.39 16.3173 950.551 16.2966C963.959 16.17 977.367 16.0435 990.776 15.917C1232.13 13.6392 1473.48 11.3614 1714.83 9.08362C1728.23 8.95708 1741.64 8.83054 1755.05 8.70399C1755.2 8.7026 1755.34 8.64284 1755.44 8.53868C1755.54 8.43447 1755.6 8.29438 1755.6 8.14844C1755.6 8.00249 1755.54 7.86241 1755.44 7.7582C1755.34 7.65403 1755.2 7.59428 1755.05 7.59288C1741.64 7.46634 1728.23 7.3398 1714.83 7.21325C1473.48 4.93547 1232.13 2.6577 990.776 0.379919C977.367 0.253376 963.959 0.126833 950.551 0.000289917Z" fill="#236153"/>
<path d="M805.051 16.2966C807.212 16.3173 809.284 15.4769 810.812 13.9485C812.34 12.4208 813.199 10.3301 813.199 8.14844C813.199 5.96674 812.34 3.87611 810.812 2.34838C809.284 0.819957 807.212 -0.0203886 805.051 0.000289917C791.642 0.126833 778.234 0.253376 764.826 0.379919C523.476 2.6577 282.126 4.93547 40.7756 7.21325C27.3673 7.3398 13.959 7.46634 0.550598 7.59288C0.404663 7.59428 0.264709 7.65403 0.161499 7.7582C0.0582886 7.86241 0.000305176 8.00249 0.000305176 8.14844C0.000305176 8.29438 0.0582886 8.43447 0.161499 8.53868C0.264709 8.64284 0.404663 8.7026 0.550598 8.70399C13.959 8.83054 27.3673 8.95708 40.7756 9.08362C282.126 11.3614 523.476 13.6392 764.826 15.917C778.234 16.0435 791.642 16.17 805.051 16.2966Z" fill="#236153"/>
<circle cx="853.551" cy="8.14844" r="8" fill="#236153"/>
<circle cx="910.551" cy="8.14844" r="8" fill="#236153"/>
</svg>
